<svg width="24" height="24" viewBox="0 0 24 24" fill="none" xmlns="http://www.w3.org/2000/svg">
<path d="M19.466 4.75H3.78598C3.69798 4.75 3.62598 4.822 3.62598 4.91V6.19C3.62598 6.278 3.69798 6.35 3.78598 6.35H19.466C19.554 6.35 19.626 6.278 19.626 6.19V4.91C19.626 4.822 19.554 4.75 19.466 4.75ZM19.466 17.23H3.78598C3.69798 17.23 3.62598 17.302 3.62598 17.39V18.67C3.62598 18.758 3.69798 18.83 3.78598 18.83H19.466C19.554 18.83 19.626 18.758 19.626 18.67V17.39C19.626 17.302 19.554 17.23 19.466 17.23ZM19.466 10.99H3.78598C3.69798 10.99 3.62598 11.062 3.62598 11.15V12.43C3.62598 12.518 3.69798 12.59 3.78598 12.59H19.466C19.554 12.59 19.626 12.518 19.626 12.43V11.15C19.626 11.062 19.554 10.99 19.466 10.99Z" fill="white"/>
</svg>
