<svg width="18" height="18" viewBox="0 0 18 18" fill="none" xmlns="http://www.w3.org/2000/svg">
<g clip-path="url(#clip0_84_2771)">
<path d="M9.65372 11.3032L7.74872 9.42067L7.77122 9.39817C9.07622 7.94317 10.0062 6.27067 10.5537 4.50067H12.7512V3.00067H7.50122V1.50067H6.00122V3.00067H0.751221V4.49317H9.12872C8.62622 5.94067 7.83122 7.31317 6.75122 8.51317C6.05372 7.74067 5.47622 6.89317 5.01872 6.00067H3.51872C4.06622 7.22317 4.81622 8.37817 5.75372 9.42067L1.93622 13.1857L3.00122 14.2507L6.75122 10.5007L9.08372 12.8332L9.65372 11.3032ZM13.8762 7.50067H12.3762L9.00122 16.5007H10.5012L11.3412 14.2507H14.9037L15.7512 16.5007H17.2512L13.8762 7.50067ZM11.9112 12.7507L13.1262 9.50317L14.3412 12.7507H11.9112Z" fill="white"/>
</g>
<defs>
<clipPath id="clip0_84_2771">
<rect width="18" height="18" fill="white" transform="translate(0.000976562)"/>
</clipPath>
</defs>
</svg>
